<svg width="900" height="520" viewBox="0 0 900 520" fill="none" xmlns="http://www.w3.org/2000/svg">
  <rect width="900" height="520" rx="28" fill="#F7FBF9"/>
  <text x="48" y="62" font-family="Noto Sans TC, Microsoft JhengHei, Arial, sans-serif" font-size="28" font-weight="700" fill="#16352F">系統分層架構</text>
  <text x="48" y="94" font-family="Noto Sans TC, Microsoft JhengHei, Arial, sans-serif" font-size="15" fill="#5D6F6A">Smart Fridge Manager 技術模組關係</text>

  <rect x="54" y="128" width="792" height="74" rx="14" fill="#E7F5EF" stroke="#5BB99A" stroke-width="2"/>
  <text x="86" y="160" font-family="Noto Sans TC, Microsoft JhengHei, Arial, sans-serif" font-size="20" font-weight="700" fill="#16352F">前端互動層</text>
  <text x="86" y="184" font-family="Noto Sans TC, Microsoft JhengHei, Arial, sans-serif" font-size="15" fill="#3D5550">Streamlit UI、圖片上傳、庫存卡片、對話工作台、採買清單</text>

  <line x1="450" y1="202" x2="450" y2="232" stroke="#8EA8A0" stroke-width="3"/>
  <polygon points="450,244 441,228 459,228" fill="#8EA8A0"/>

  <rect x="54" y="248" width="240" height="112" rx="14" fill="#FFFFFF" stroke="#CCDAD5"/>
  <text x="82" y="284" font-family="Noto Sans TC, Microsoft JhengHei, Arial, sans-serif" font-size="18" font-weight="700" fill="#16352F">應用控制層</text>
  <text x="82" y="312" font-family="Noto Sans TC, Microsoft JhengHei, Arial, sans-serif" font-size="14" fill="#596B66">streamlit_app.py</text>
  <text x="82" y="334" font-family="Noto Sans TC, Microsoft JhengHei, Arial, sans-serif" font-size="14" fill="#596B66">事件處理、輸入驗證、狀態管理</text>

  <rect x="330" y="248" width="240" height="112" rx="14" fill="#FFFFFF" stroke="#CCDAD5"/>
  <text x="358" y="284" font-family="Noto Sans TC, Microsoft JhengHei, Arial, sans-serif" font-size="18" font-weight="700" fill="#16352F">AI Agent 層</text>
  <text x="358" y="312" font-family="Noto Sans TC, Microsoft JhengHei, Arial, sans-serif" font-size="14" fill="#596B66">ChefAgent / ExpiryAgent</text>
  <text x="358" y="334" font-family="Noto Sans TC, Microsoft JhengHei, Arial, sans-serif" font-size="14" fill="#596B66">食譜推薦、效期判斷、採買規劃</text>

  <rect x="606" y="248" width="240" height="112" rx="14" fill="#FFFFFF" stroke="#CCDAD5"/>
  <text x="634" y="284" font-family="Noto Sans TC, Microsoft JhengHei, Arial, sans-serif" font-size="18" font-weight="700" fill="#16352F">外部 AI 服務</text>
  <text x="634" y="312" font-family="Noto Sans TC, Microsoft JhengHei, Arial, sans-serif" font-size="14" fill="#596B66">Gemini API</text>
  <text x="634" y="334" font-family="Noto Sans TC, Microsoft JhengHei, Arial, sans-serif" font-size="14" fill="#596B66">圖片辨識、自然語言、Embedding</text>

  <line x1="294" y1="304" x2="330" y2="304" stroke="#8EA8A0" stroke-width="3"/>
  <polygon points="330,304 314,295 314,313" fill="#8EA8A0"/>
  <line x1="570" y1="304" x2="606" y2="304" stroke="#8EA8A0" stroke-width="3"/>
  <polygon points="606,304 590,295 590,313" fill="#8EA8A0"/>

  <line x1="450" y1="360" x2="450" y2="390" stroke="#8EA8A0" stroke-width="3"/>
  <polygon points="450,402 441,386 459,386" fill="#8EA8A0"/>

  <rect x="54" y="408" width="378" height="70" rx="14" fill="#F0F5FF" stroke="#8DA8E8"/>
  <text x="82" y="438" font-family="Noto Sans TC, Microsoft JhengHei, Arial, sans-serif" font-size="18" font-weight="700" fill="#19345C">工具與資料處理層</text>
  <text x="82" y="462" font-family="Noto Sans TC, Microsoft JhengHei, Arial, sans-serif" font-size="14" fill="#4E607D">inventory_tools、recipe_tools、shopping_tools</text>

  <rect x="468" y="408" width="378" height="70" rx="14" fill="#FFF8E8" stroke="#E0B95E"/>
  <text x="496" y="438" font-family="Noto Sans TC, Microsoft JhengHei, Arial, sans-serif" font-size="18" font-weight="700" fill="#513B10">資料儲存層</text>
  <text x="496" y="462" font-family="Noto Sans TC, Microsoft JhengHei, Arial, sans-serif" font-size="14" fill="#705B2F">SQLite 庫存資料庫、ChromaDB 食譜向量資料庫</text>
</svg>
